<svg width="53" height="43" viewBox="0 0 53 43" fill="none" xmlns="http://www.w3.org/2000/svg">
<path d="M28.3195 28.3154L28.3175 28.3175C27.3151 29.3201 25.685 29.3201 24.6826 28.3176C24.6826 28.3176 24.6826 28.3175 24.6826 28.3175M28.3195 28.3154L24.6826 28.3175M28.3195 28.3154C28.5082 28.1246 28.8462 27.6976 29.2844 27.1157C29.7317 26.5218 30.3054 25.7366 30.9755 24.8041C32.316 22.9387 34.0474 20.4765 35.9344 17.7617L35.2385 17.0658C32.5236 18.9528 30.0614 20.6843 28.1959 22.0248C27.2634 22.6949 26.4781 23.2686 25.8842 23.716C25.3022 24.1542 24.8752 24.4923 24.6843 24.6809L24.6821 24.6831C23.68 25.6856 23.6802 27.3152 24.6826 28.3175M28.3195 28.3154L24.6826 28.3175M6.78624 38.0326L6.55536 37.6206C4.64383 34.2091 3.64062 30.3999 3.64062 26.5C3.64062 23.6441 4.16731 20.9079 5.12882 18.3841L5.32229 17.8763L5.81229 18.1113L8.74082 19.516C8.96077 19.6215 9.19158 19.671 9.41858 19.671C10.0051 19.671 10.5662 19.3416 10.8359 18.7793C11.2109 17.9973 10.8811 17.0593 10.0991 16.6843L10.0991 16.6842L7.20769 15.2973L6.70797 15.0576L6.99768 14.5852C10.6707 8.59475 17.0269 4.41631 24.3839 3.73777L24.9298 3.68741V4.23565V7.34951C24.9298 8.2168 25.6328 8.91982 26.5001 8.91982C27.3674 8.91982 28.0704 8.2168 28.0704 7.34951V4.2341V3.68652L28.6157 3.73616C31.1378 3.96574 33.5787 4.60817 35.895 5.65377L35.8951 5.6538C36.6852 6.01058 37.6154 5.65899 37.9723 4.86866C38.3291 4.07817 37.9776 3.14819 37.1871 2.79134C33.8191 1.27102 30.2244 0.5 26.5 0.5C19.5542 0.5 13.0267 3.20373 8.11516 8.11515C8.11516 8.11515 8.11516 8.11516 8.11515 8.11516M6.78624 38.0326L8.11515 8.11516M6.78624 38.0326L7.21076 37.8256L9.76649 36.5789C9.76651 36.5788 9.76654 36.5788 9.76656 36.5788C10.5462 36.1987 11.4863 36.5224 11.8665 37.3017C12.2467 38.0812 11.9231 39.0213 11.1436 39.4016L6.89948 41.4718C6.67832 41.5797 6.44376 41.631 6.21218 41.631C5.70108 41.631 5.20533 41.3816 4.90544 40.9332C2.02257 36.6213 0.5 31.6306 0.5 26.5C0.5 19.5542 3.20383 13.0267 8.11515 8.11516M6.78624 38.0326L8.11515 8.11516M42.6957 8.12236C41.1472 9.17781 36.49 12.3589 32.0118 15.4844C29.7725 17.0473 27.5798 18.595 25.8436 19.8555C24.0883 21.1298 22.8444 22.0792 22.4618 22.4618C22.4618 22.4618 22.4618 22.4618 22.4618 22.4618M42.6957 8.12236L22.1082 30.8919C19.6866 28.4702 19.6866 24.53 22.1082 22.1082L22.4618 22.4618M42.6957 8.12236C43.3194 7.69737 44.1569 7.77605 44.6905 8.30949C45.224 8.84319 45.3026 9.68087 44.8777 10.3046M42.6957 8.12236L44.8777 10.3046M22.4618 22.4618C20.2354 24.6883 20.2354 28.3119 22.4618 30.5384M22.4618 22.4618L22.4618 30.5384M22.4618 30.5384C22.4618 30.5384 22.4618 30.5384 22.4618 30.5384M22.4618 30.5384L22.4618 30.5384M22.4618 30.5384C23.5748 31.6513 25.0364 32.2081 26.5001 32.2081C27.9637 32.2081 29.4253 31.6513 30.5384 30.5384C30.5384 30.5384 30.5384 30.5384 30.5384 30.5384M22.4618 30.5384L45.291 10.5861C43.1794 13.6839 32.5618 29.222 30.8919 30.8919L30.5384 30.5384M30.5384 30.5384C30.921 30.1557 31.8703 28.9118 33.1447 27.1565C34.4052 25.4203 35.9529 23.2277 37.5158 20.9883C40.6412 16.5102 43.8222 11.8532 44.8777 10.3046M30.5384 30.5384L44.8777 10.3046M45.7849 37.8432L46.207 38.0442L46.4358 37.6365C48.353 34.2211 49.3594 30.4058 49.3594 26.5C49.3594 23.2264 48.6822 20.0645 47.3462 17.1051L46.8905 17.3109L47.3462 17.1051C46.9893 16.3147 47.3408 15.3847 48.1313 15.0279L47.9255 14.5721L48.1313 15.0278C48.922 14.6708 49.8518 15.0225 50.2086 15.813L50.6643 15.6073L50.2086 15.813C51.7291 19.181 52.5001 22.7757 52.5001 26.5C52.5001 31.6307 50.9775 36.6213 48.0945 40.9334L48.0945 40.9334C47.7951 41.3814 47.2993 41.6311 46.788 41.6311C46.561 41.6311 46.3314 41.5819 46.1139 41.4784L41.7663 39.4081C40.9833 39.0352 40.6508 38.0981 41.0236 37.3152C41.3966 36.5321 42.3337 36.1997 43.1165 36.5725L45.7849 37.8432Z" fill="#2F3035" stroke="white"/>
</svg>
